<svg width="21" height="20" viewBox="0 0 21 20" fill="none" xmlns="http://www.w3.org/2000/svg">
<path d="M1.00189 18C0.72575 17.999 0.501047 18.222 0.500004 18.4981C0.49896 18.7743 0.721969 18.999 0.99811 19L1.00189 18ZM19.8903 19.0714C20.1664 19.0725 20.3911 18.8494 20.3922 18.5733C20.3932 18.2972 20.1702 18.0725 19.8941 18.0714L19.8903 19.0714ZM11.8835 7.57116C12.1596 7.57594 12.3873 7.35599 12.3921 7.07989C12.3969 6.80379 12.177 6.57609 11.9009 6.57131L11.8835 7.57116ZM3.3062 6.92257L3.31485 6.42257L3.30624 6.42257L3.3062 6.92257ZM1.4752 8.11757L1.01749 7.91632L0.99683 7.9633L0.986148 8.01349L1.4752 8.11757ZM2.3922 10.5076L2.84118 10.2875L2.83941 10.284L2.3922 10.5076ZM4.44821 14.7023L3.99924 14.9224L4.03585 14.9971L4.09467 15.0559L4.44821 14.7023ZM6.58221 15.5862V15.0862V15.5862ZM8.71621 14.7023L9.06976 15.0559L9.07854 15.0471L9.08687 15.0379L8.71621 14.7023ZM12.3522 10.6863L12.0522 10.2863L12.0138 10.3152L11.9816 10.3508L12.3522 10.6863ZM12.8322 10.3263L12.8417 9.82643L12.6698 9.82317L12.5322 9.92634L12.8322 10.3263ZM19.6158 10.7736C19.8628 10.6501 19.9629 10.3497 19.8394 10.1027C19.7159 9.85575 19.4156 9.75563 19.1686 9.87913L19.6158 10.7736ZM6.1444 11.8687C6.26723 12.1161 6.5673 12.217 6.81462 12.0942C7.06194 11.9713 7.16286 11.6713 7.04003 11.4239L6.1444 11.8687ZM4.69399 6.70017C4.57116 6.45285 4.27109 6.35193 4.02377 6.47476C3.77645 6.59759 3.67554 6.89766 3.79837 7.14498L4.69399 6.70017ZM2.42021 5.00721L2.35459 5.50288L2.38726 5.50721H2.42021V5.00721ZM1.06021 3.65119L1.54334 3.52238L1.54319 3.52181L1.06021 3.65119ZM2.30221 1.48819L2.17297 1.00517L2.17048 1.00585L2.30221 1.48819ZM4.44821 2.73819L3.96431 2.86405L3.96499 2.86662L4.44821 2.73819ZM3.74021 4.76721L3.89833 5.24155C3.95281 5.22339 4.00375 5.19598 4.04893 5.16052L3.74021 4.76721ZM3.02021 5.00721V5.50721C3.07395 5.50721 3.12734 5.49854 3.17833 5.48155L3.02021 5.00721ZM0.99811 19L19.8903 19.0714L19.8941 18.0714L1.00189 18L0.99811 19ZM11.9009 6.57131L3.31485 6.42265L3.29754 7.4225L11.8835 7.57116L11.9009 6.57131ZM3.30624 6.42257C2.82092 6.42253 2.34609 6.56375 1.93967 6.829L2.48622 7.66643C2.73007 7.50728 3.01497 7.42255 3.30616 7.42257L3.30624 6.42257ZM1.93967 6.829C1.53325 7.09425 1.21283 7.47205 1.01749 7.91632L1.93291 8.31882C2.05011 8.05226 2.24237 7.82558 2.48622 7.66643L1.93967 6.829ZM0.986148 8.01349C0.939966 8.23049 0.982225 8.46126 1.02947 8.64161C1.08094 8.83813 1.16119 9.05521 1.25375 9.27665C1.43878 9.71931 1.69733 10.2359 1.94498 10.7312L2.83941 10.284C2.58706 9.77926 2.34561 9.29583 2.17639 8.89099C2.09183 8.68868 2.03138 8.52013 1.99683 8.38822C1.95804 8.24013 1.96893 8.19965 1.96424 8.22165L0.986148 8.01349ZM1.94323 10.7276L3.99924 14.9224L4.89718 14.4823L2.84117 10.2875L1.94323 10.7276ZM4.09467 15.0559C4.75442 15.7156 5.64921 16.0862 6.58221 16.0862V15.0862C5.91442 15.0862 5.27397 14.8209 4.80176 14.3488L4.09467 15.0559ZM6.58221 16.0862C7.51522 16.0862 8.41001 15.7156 9.06976 15.0559L8.36267 14.3488C7.89045 14.8209 7.25001 15.0862 6.58221 15.0862V16.0862ZM9.08687 15.0379L12.7229 11.0219L11.9816 10.3508L8.34556 14.3667L9.08687 15.0379ZM12.6522 11.0863L13.1322 10.7263L12.5322 9.92634L12.0522 10.2863L12.6522 11.0863ZM12.8322 10.3263C12.8227 10.8263 12.8227 10.8263 12.8228 10.8263C12.8229 10.8263 12.8229 10.8263 12.823 10.8263C12.8232 10.8263 12.8235 10.8263 12.8239 10.8263C12.8247 10.8263 12.8258 10.8263 12.8274 10.8263C12.8304 10.8264 12.835 10.8265 12.841 10.8266C12.853 10.8268 12.8709 10.8272 12.8941 10.8276C12.9405 10.8284 13.0087 10.8297 13.0955 10.8312C13.269 10.8342 13.5171 10.8385 13.8156 10.8432C14.4125 10.8525 15.2111 10.8638 16.0175 10.8713C16.8234 10.8788 17.6395 10.8826 18.2704 10.8769C18.5852 10.8741 18.8583 10.8689 19.0623 10.8604C19.1636 10.8561 19.2541 10.8508 19.3268 10.8438C19.3626 10.8404 19.4011 10.8359 19.4376 10.8296C19.4569 10.8262 19.536 10.8135 19.6158 10.7736L19.1686 9.87913C19.2092 9.85885 19.2415 9.85032 19.2491 9.84832C19.2553 9.84666 19.26 9.84563 19.2626 9.84509C19.2652 9.84453 19.2668 9.84427 19.2669 9.84424C19.2669 9.84424 19.264 9.84473 19.2573 9.84557C19.2509 9.84638 19.2423 9.84734 19.2312 9.84841C19.1849 9.85286 19.115 9.85727 19.0205 9.86123C18.833 9.86909 18.5729 9.87419 18.2615 9.87699C17.6399 9.88257 16.831 9.87886 16.0269 9.87136C15.2233 9.86388 14.427 9.85264 13.8313 9.84328C13.5336 9.8386 13.2861 9.83438 13.113 9.83134C13.0265 9.82982 12.9586 9.82859 12.9124 9.82774C12.8893 9.82732 12.8716 9.82699 12.8597 9.82677C12.8537 9.82666 12.8492 9.82657 12.8462 9.82652C12.8447 9.82649 12.8436 9.82647 12.8428 9.82645C12.8424 9.82645 12.8422 9.82644 12.842 9.82644C12.8419 9.82644 12.8418 9.82644 12.8418 9.82643C12.8417 9.82643 12.8417 9.82643 12.8322 10.3263ZM7.04003 11.4239L4.69399 6.70017L3.79837 7.14498L6.1444 11.8687L7.04003 11.4239ZM2.42021 5.00721C2.48583 4.51153 2.4861 4.51157 2.48636 4.5116C2.48645 4.51161 2.48671 4.51165 2.48687 4.51167C2.4872 4.51171 2.48752 4.51176 2.48782 4.5118C2.48842 4.51188 2.48897 4.51196 2.48946 4.51203C2.49043 4.51216 2.49118 4.51227 2.4917 4.51235C2.49275 4.51251 2.49292 4.51255 2.49224 4.51243C2.49089 4.5122 2.48625 4.51139 2.47869 4.50979C2.46351 4.50657 2.4371 4.5003 2.40248 4.48949C2.33267 4.46768 2.23352 4.42867 2.1266 4.36202C1.92114 4.23394 1.66916 3.99431 1.54334 3.52238L0.577088 3.77999C0.776266 4.52706 1.20428 4.96545 1.59758 5.21063C1.79003 5.3306 1.96995 5.40203 2.10435 5.44401C2.17184 5.46509 2.22883 5.47905 2.27152 5.48809C2.2929 5.49262 2.31081 5.49594 2.32477 5.49831C2.33176 5.4995 2.33778 5.50045 2.34276 5.5012C2.34526 5.50158 2.34749 5.5019 2.34947 5.50218C2.35045 5.50232 2.35137 5.50245 2.35223 5.50256C2.35266 5.50262 2.35307 5.50268 2.35346 5.50273C2.35366 5.50276 2.35394 5.5028 2.35404 5.50281C2.35432 5.50285 2.35459 5.50288 2.42021 5.00721ZM1.54319 3.52181C1.45645 3.19801 1.50146 2.85303 1.66839 2.56232L0.801183 2.06437C0.502615 2.58434 0.422098 3.20138 0.57724 3.78056L1.54319 3.52181ZM1.66839 2.56232C1.83531 2.27162 2.11056 2.05884 2.43394 1.97052L2.17048 1.00585C1.59207 1.16382 1.09975 1.5444 0.801183 2.06437L1.66839 2.56232ZM2.43146 1.97119C2.59074 1.92857 2.75688 1.91788 2.92031 1.93975L3.05291 0.948579C2.75874 0.909224 2.45968 0.92846 2.17297 1.00518L2.43146 1.97119ZM2.92031 1.93975C3.08375 1.96161 3.24124 2.01559 3.38372 2.09859L3.88704 1.23449C3.63057 1.0851 3.34709 0.987934 3.05291 0.948579L2.92031 1.93975ZM3.38372 2.09859C3.5262 2.18158 3.65085 2.29194 3.75049 2.42331L4.54723 1.81899C4.36787 1.58252 4.1435 1.38387 3.88704 1.23449L3.38372 2.09859ZM3.75049 2.42331C3.85014 2.55468 3.92281 2.70447 3.96431 2.86405L4.93211 2.61232C4.8574 2.32508 4.7266 2.05546 4.54723 1.81899L3.75049 2.42331ZM3.96499 2.86662C4.08161 3.3054 3.95932 3.67132 3.78941 3.94855C3.70392 4.08803 3.60949 4.19889 3.53665 4.27434C3.5006 4.3117 3.47085 4.33932 3.45167 4.35638C3.44211 4.36488 3.43528 4.37067 3.43171 4.37364C3.42993 4.37512 3.42897 4.37589 3.42891 4.37594C3.42888 4.37597 3.42908 4.37581 3.4295 4.37547C3.42972 4.3753 3.42999 4.37508 3.43032 4.37482C3.43049 4.37469 3.43067 4.37455 3.43087 4.37439C3.43096 4.37431 3.43112 4.37419 3.43117 4.37415C3.43133 4.37402 3.4315 4.37389 3.74021 4.76721C4.04893 5.16052 4.0491 5.16038 4.04928 5.16024C4.04934 5.16019 4.04952 5.16005 4.04965 5.15995C4.04991 5.15975 4.05019 5.15953 4.05048 5.1593C4.05106 5.15884 4.05171 5.15833 4.05241 5.15776C4.05383 5.15663 4.0555 5.15529 4.05742 5.15375C4.06124 5.15066 4.06604 5.14673 4.07174 5.14199C4.08313 5.1325 4.09815 5.11969 4.11617 5.10366C4.15216 5.07166 4.20051 5.02648 4.25615 4.96885C4.36669 4.85433 4.51 4.6865 4.64202 4.4711C4.90711 4.03856 5.13881 3.38997 4.93143 2.60975L3.96499 2.86662ZM3.5821 4.29287L2.8621 4.53287L3.17833 5.48155L3.89833 5.24155L3.5821 4.29287ZM3.02021 4.50721H2.42021V5.50721H3.02021V4.50721Z" fill="#923EA1"/>
</svg>
