<svg width="24" height="24" viewBox="0 0 24 24" fill="none" xmlns="http://www.w3.org/2000/svg">
<path d="M9.48004 2.04492V4.06092C9.48004 4.61692 9.00504 5.05892 8.52004 5.33292C7.60604 5.85192 6.96204 7.03992 6.96204 8.09092C6.96204 8.759 7.22743 9.39972 7.69983 9.87212C8.17224 10.3445 8.81296 10.6099 9.48104 10.6099C10.1491 10.6099 10.7898 10.3445 11.2622 9.87212C11.7346 9.39972 12 8.759 12 8.09092C12 8.759 12.2654 9.39972 12.7378 9.87212C13.2102 10.3445 13.851 10.6099 14.519 10.6099C15.1871 10.6099 15.8278 10.3445 16.3002 9.87212C16.7726 9.39972 17.038 8.759 17.038 8.09092C17.038 7.03992 16.394 5.85092 15.479 5.33292C14.995 5.05892 14.519 4.61692 14.519 4.06092V2.04492M9.51904 21.9999V19.9849C9.51904 19.4279 9.04304 18.9859 8.55904 18.7119C7.64304 18.1939 7.00004 17.0059 7.00004 15.9539C7.00004 15.2858 7.26543 14.6451 7.73783 14.1727C8.21024 13.7003 8.85096 13.4349 9.51904 13.4349C10.1871 13.4349 10.8278 13.7003 11.3002 14.1727C11.7726 14.6451 12.038 15.2858 12.038 15.9539C12.038 15.2858 12.3034 14.6451 12.7758 14.1727C13.2482 13.7003 13.889 13.4349 14.557 13.4349C15.2251 13.4349 15.8658 13.7003 16.3382 14.1727C16.8106 14.6451 17.076 15.2858 17.076 15.9539C17.076 17.0059 16.432 18.1939 15.517 18.7119C15.033 18.9859 14.557 19.4279 14.557 19.9849V21.9999" stroke="#923EA1" stroke-linecap="round" stroke-linejoin="round"/>
<path d="M22 12C22 16.714 22 19.071 20.535 20.535C19.072 22 16.714 22 12 22C7.286 22 4.929 22 3.464 20.535C2 19.072 2 16.714 2 12C2 7.286 2 4.929 3.464 3.464C4.93 2 7.286 2 12 2C16.714 2 19.071 2 20.535 3.464C21.509 4.438 21.835 5.807 21.945 8" stroke="#923EA1" stroke-linecap="round"/>
</svg>
