<svg width="24" height="24" viewBox="0 0 24 24" fill="none" xmlns="http://www.w3.org/2000/svg">
<g clip-path="url(#clip0_5087_444)">
<path fill-rule="evenodd" clip-rule="evenodd" d="M17.9255 8.12493C18.2965 8.53443 18.183 9.16293 17.7305 9.47993L15.2945 11.1889C14.8425 11.5059 14.2245 11.3779 13.778 11.0539C13.2753 10.688 12.6721 10.4862 12.0505 10.4759C11.4288 10.4657 10.8192 10.6473 10.3045 10.9959C9.84695 11.3054 9.22546 11.4129 8.78446 11.0809L6.40596 9.29193C5.96496 8.95993 5.87196 8.32743 6.25646 7.93093C7.01786 7.1457 7.93219 6.52495 8.94296 6.10703C9.95373 5.6891 11.0395 5.48288 12.1331 5.50111C13.2267 5.51934 14.3049 5.76163 15.3012 6.21301C16.2975 6.66438 17.1906 7.31476 17.9255 8.12493ZM17.098 8.70343C16.4569 8.02213 15.6858 7.47625 14.8302 7.09802C13.9746 6.71979 13.0518 6.5169 12.1165 6.50133C11.1811 6.48576 10.2521 6.65784 9.38441 7.00738C8.51669 7.35692 7.72783 7.87685 7.06446 8.53643L9.38346 10.2804C9.40481 10.285 9.42677 10.286 9.44845 10.2834C9.52695 10.2764 9.63695 10.2404 9.74345 10.1684C10.4501 9.6898 11.2905 9.44816 12.1435 9.47843C12.1625 9.43843 12.1873 9.40076 12.218 9.36543L13.591 7.78643C13.6779 7.68631 13.8011 7.62485 13.9335 7.61556C14.0658 7.60628 14.1963 7.64994 14.2965 7.73693C14.3966 7.82392 14.458 7.94712 14.4673 8.07943C14.4766 8.21173 14.4329 8.34231 14.346 8.44243L13.2685 9.68143C13.6612 9.81138 14.0315 10.0015 14.366 10.2449C14.47 10.3204 14.5785 10.3599 14.657 10.3699C14.695 10.3749 14.715 10.3714 14.722 10.3694L17.098 8.70343ZM14.7265 10.3679L14.722 10.3694C14.724 10.3678 14.7258 10.3673 14.7265 10.3679Z" fill="#923EA1"/>
<path fill-rule="evenodd" clip-rule="evenodd" d="M18.108 21C18.6192 21 19.111 20.8043 19.4824 20.453C19.8538 20.1016 20.0766 19.6214 20.105 19.111L20.883 5.111C20.8981 4.83942 20.8576 4.56762 20.7641 4.31221C20.6705 4.0568 20.5259 3.82315 20.3389 3.62556C20.152 3.42797 19.9268 3.27058 19.6769 3.16302C19.4271 3.05546 19.158 2.99999 18.886 3H5.11396C4.84201 3.00006 4.57292 3.05558 4.32315 3.16317C4.07338 3.27076 3.84818 3.42816 3.66131 3.62574C3.47444 3.82333 3.32983 4.05695 3.23632 4.31233C3.14281 4.5677 3.10237 4.83946 3.11746 5.111L3.89496 19.111C3.92334 19.6214 4.1461 20.1016 4.5175 20.453C4.8889 20.8043 5.38073 21 5.89196 21H18.108ZM5.89196 20H18.108C18.3637 20 18.6096 19.9021 18.7954 19.7263C18.9811 19.5505 19.0924 19.3103 19.1065 19.055L19.8845 5.055C19.8919 4.91925 19.8717 4.7834 19.8249 4.65576C19.7781 4.52811 19.7057 4.41135 19.6123 4.31261C19.5188 4.21387 19.4062 4.13522 19.2813 4.08147C19.1564 4.02772 19.0219 4 18.886 4H5.11396C4.97801 4 4.84348 4.02772 4.7186 4.08147C4.59372 4.13522 4.48112 4.21387 4.38766 4.31261C4.29421 4.41135 4.22187 4.52811 4.17507 4.65576C4.12827 4.7834 4.10799 4.91925 4.11546 5.055L4.89346 19.055C4.90753 19.3103 5.01886 19.5505 5.20457 19.7263C5.39028 19.9021 5.63627 20 5.89196 20Z" fill="#923EA1"/>
</g>
<defs>
<clipPath id="clip0_5087_444">
<rect width="24" height="24" fill="white"/>
</clipPath>
</defs>
</svg>
