<svg width="24" height="24" viewBox="0 0 24 24" fill="none" xmlns="http://www.w3.org/2000/svg">
<path d="M14.571 15.0039L15.429 16.8489C15.429 16.8489 19.286 17.6679 19.286 19.6159C19.286 20.9999 17.57 20.9999 17.57 20.9999H13L10.75 19.7499" stroke="#923EA1" stroke-linecap="round" stroke-linejoin="round"/>
<path d="M9.42899 15.0039L8.57199 16.8489C8.57199 16.8489 4.71399 17.6679 4.71399 19.6159C4.71399 20.9999 6.42999 20.9999 6.42999 20.9999H8.49999L10.75 19.7499L13.5 17.9999" stroke="#923EA1" stroke-linecap="round" stroke-linejoin="round"/>
<path d="M3 15.926C3 15.926 5.143 15.465 6.429 15.004C7.714 8.546 11.57 9.007 12 9.007C12.43 9.007 16.286 8.546 17.571 15.004C18.857 15.464 21 15.926 21 15.926M12 7C12.5304 7 13.0391 6.78929 13.4142 6.41421C13.7893 6.03914 14 5.53043 14 5C14 4.46957 13.7893 3.96086 13.4142 3.58579C13.0391 3.21071 12.5304 3 12 3C11.4696 3 10.9609 3.21071 10.5858 3.58579C10.2107 3.96086 10 4.46957 10 5C10 5.53043 10.2107 6.03914 10.5858 6.41421C10.9609 6.78929 11.4696 7 12 7Z" stroke="#923EA1" stroke-linecap="round" stroke-linejoin="round"/>
</svg>
