<svg width="32" height="32" viewBox="0 0 32 32" fill="none" xmlns="http://www.w3.org/2000/svg">
<path d="M20.0974 2.66669H11.9174C4.44275 2.66669 2.66675 4.44402 2.66675 11.9027V20.084C2.66675 27.556 4.43075 29.3334 11.9027 29.3334H20.0841C27.5561 29.3334 29.3334 27.5694 29.3334 20.0974V11.9174C29.3334 4.44269 27.5694 2.66669 20.0974 2.66669ZM24.1947 21.6934H22.2494C21.5134 21.6934 21.2921 21.0974 19.9721 19.7774C18.8201 18.6667 18.3334 18.528 18.0414 18.528C17.6387 18.528 17.5281 18.6387 17.5281 19.1947V20.944C17.5281 21.4174 17.3747 21.6947 16.1387 21.6947C14.9392 21.6141 13.776 21.2496 12.7449 20.6314C11.7138 20.0131 10.8443 19.1588 10.2081 18.1387C8.69764 16.2587 7.64667 14.0522 7.13875 11.6947C7.13875 11.4027 7.24941 11.1387 7.80541 11.1387H9.75075C10.2507 11.1387 10.4307 11.3614 10.6254 11.8747C11.5694 14.6534 13.1801 17.0694 13.8334 17.0694C14.0841 17.0694 14.1934 16.9587 14.1934 16.3334V13.472C14.1107 12.1667 13.4174 12.056 13.4174 11.584C13.4263 11.4595 13.4834 11.3434 13.5765 11.2603C13.6696 11.1771 13.7914 11.1335 13.9161 11.1387H16.9721C17.3894 11.1387 17.5281 11.3467 17.5281 11.8467V15.708C17.5281 16.1254 17.7081 16.264 17.8334 16.264C18.0841 16.264 18.2774 16.1254 18.7361 15.6667C19.7212 14.4653 20.5261 13.1268 21.1254 11.6934C21.1867 11.5212 21.3026 11.3738 21.4555 11.2736C21.6083 11.1735 21.7898 11.1261 21.9721 11.1387H23.9174C24.5001 11.1387 24.6241 11.4307 24.5001 11.8467C23.7927 13.4313 22.9175 14.9354 21.8894 16.3334C21.6801 16.6534 21.5961 16.82 21.8894 17.1947C22.0827 17.4867 22.7641 18.056 23.2227 18.5974C23.8893 19.2622 24.4428 20.0314 24.8614 20.8747C25.0281 21.416 24.7494 21.6934 24.1947 21.6934Z" fill="#923EA1"/>
</svg>
