<svg width="14" height="8" viewBox="0 0 14 8" fill="none" xmlns="http://www.w3.org/2000/svg">
<path d="M13.364 0.516097C13.1764 0.328626 12.9221 0.22331 12.657 0.22331C12.3918 0.22331 12.1375 0.328626 11.95 0.516097L6.99995 5.4661L2.04995 0.516098C1.86135 0.33394 1.60874 0.233145 1.34655 0.235424C1.08435 0.237702 0.833537 0.342871 0.648129 0.528279C0.46272 0.713687 0.357553 0.9645 0.355274 1.2267C0.352996 1.48889 0.45379 1.7415 0.635948 1.9301L6.29295 7.5871C6.48048 7.77457 6.73479 7.87988 6.99995 7.87988C7.26511 7.87988 7.51942 7.77457 7.70695 7.5871L13.364 1.9301C13.5514 1.74257 13.6567 1.48826 13.6567 1.2231C13.6567 0.957932 13.5514 0.703624 13.364 0.516097Z" fill="#923EA1"/>
</svg>
