<svg width="16" height="16" viewBox="0 0 16 16" fill="none" xmlns="http://www.w3.org/2000/svg">
<path d="M14.364 10.707C14.1764 10.8945 13.9221 10.9998 13.657 10.9998C13.3918 10.9998 13.1375 10.8945 12.95 10.707L7.99995 5.75705L3.04995 10.707C2.86135 10.8892 2.60874 10.99 2.34655 10.9877C2.08435 10.9854 1.83354 10.8803 1.64813 10.6949C1.46272 10.5095 1.35755 10.2586 1.35527 9.99645C1.353 9.73425 1.45379 9.48165 1.63595 9.29305L7.29295 3.63605C7.48048 3.44858 7.73479 3.34326 7.99995 3.34326C8.26511 3.34326 8.51942 3.44858 8.70695 3.63605L14.364 9.29305C14.5514 9.48058 14.6567 9.73488 14.6567 10C14.6567 10.2652 14.5514 10.5195 14.364 10.707Z" fill="#F8F4F3"/>
</svg>
