<svg width="20" height="21" viewBox="0 0 20 21" fill="none" xmlns="http://www.w3.org/2000/svg">
<path d="M3.33317 16.889C2.87484 16.889 2.48262 16.7259 2.1565 16.3998C1.83039 16.0737 1.66706 15.6812 1.6665 15.2223V5.22233C1.6665 4.764 1.82984 4.37177 2.1565 4.04566C2.48317 3.71955 2.87539 3.55622 3.33317 3.55566H16.6665C17.1248 3.55566 17.5173 3.719 17.844 4.04566C18.1707 4.37233 18.3337 4.76455 18.3332 5.22233V15.2223C18.3332 15.6807 18.1701 16.0732 17.844 16.3998C17.5179 16.7265 17.1254 16.8896 16.6665 16.889H3.33317ZM9.99984 11.0557L16.6665 6.889V5.22233L9.99984 9.389L3.33317 5.22233V6.889L9.99984 11.0557Z" fill="#F8F4F3"/>
</svg>
