<svg width="20" height="21" viewBox="0 0 20 21" fill="none" xmlns="http://www.w3.org/2000/svg">
<g clip-path="url(#clip0_7097_1496)">
<path d="M10 20.2227C10 20.2227 17.5 13.1152 17.5 7.72266C17.5 5.73353 16.7098 3.82588 15.3033 2.41936C13.8968 1.01283 11.9891 0.222656 10 0.222656C8.01088 0.222656 6.10322 1.01283 4.6967 2.41936C3.29018 3.82588 2.5 5.73353 2.5 7.72266C2.5 13.1152 10 20.2227 10 20.2227ZM10 11.4727C9.00544 11.4727 8.05161 11.0776 7.34835 10.3743C6.64509 9.67105 6.25 8.71722 6.25 7.72266C6.25 6.72809 6.64509 5.77427 7.34835 5.07101C8.05161 4.36774 9.00544 3.97266 10 3.97266C10.9946 3.97266 11.9484 4.36774 12.6517 5.07101C13.3549 5.77427 13.75 6.72809 13.75 7.72266C13.75 8.71722 13.3549 9.67105 12.6517 10.3743C11.9484 11.0776 10.9946 11.4727 10 11.4727Z" fill="#F8F4F3"/>
</g>
<defs>
<clipPath id="clip0_7097_1496">
<rect width="20" height="20" fill="white" transform="translate(0 0.222656)"/>
</clipPath>
</defs>
</svg>
