<svg width="20" height="21" viewBox="0 0 20 21" fill="none" xmlns="http://www.w3.org/2000/svg">
<g clip-path="url(#clip0_7097_1500)">
<path d="M18.1156 13.9006C17.9763 14.9592 17.4564 15.931 16.6531 16.6343C15.8497 17.3376 14.8177 17.7244 13.75 17.7225C7.54688 17.7225 2.50001 12.6756 2.50001 6.4725C2.49809 5.40476 2.88492 4.37283 3.58824 3.56945C4.29155 2.76607 5.26326 2.24618 6.32188 2.10687C6.58958 2.07419 6.86067 2.12895 7.09468 2.263C7.3287 2.39704 7.51309 2.60317 7.62032 2.85062L9.27032 6.53422V6.54359C9.35242 6.73301 9.38633 6.93981 9.36901 7.14553C9.3517 7.35124 9.2837 7.54947 9.1711 7.7225C9.15704 7.74359 9.14219 7.76312 9.12657 7.78265L7.50001 9.71078C8.08516 10.8998 9.32891 12.1327 10.5336 12.7194L12.4352 11.1014C12.4538 11.0857 12.4734 11.0711 12.4938 11.0577C12.6666 10.9423 12.8655 10.872 13.0725 10.8529C13.2794 10.8338 13.4878 10.8666 13.6789 10.9483L13.6891 10.953L17.3695 12.6022C17.6174 12.709 17.8241 12.8933 17.9585 13.1273C18.093 13.3614 18.1481 13.6327 18.1156 13.9006Z" fill="#F8F4F3"/>
</g>
<defs>
<clipPath id="clip0_7097_1500">
<rect width="20" height="20" fill="white" transform="translate(0 0.222656)"/>
</clipPath>
</defs>
</svg>
