<svg width="40" height="41" viewBox="0 0 40 41" fill="none" xmlns="http://www.w3.org/2000/svg">
<path d="M20.0002 3.55566C10.8002 3.55566 3.3335 11.0223 3.3335 20.2223C3.3335 29.4223 10.8002 36.889 20.0002 36.889C29.2002 36.889 36.6668 29.4223 36.6668 20.2223C36.6668 11.0223 29.2002 3.55566 20.0002 3.55566ZM27.7335 14.889C27.4835 17.5223 26.4002 23.9223 25.8502 26.8723C25.6168 28.1223 25.1502 28.539 24.7168 28.589C23.7502 28.6723 23.0168 27.9557 22.0835 27.339C20.6168 26.3723 19.7835 25.7723 18.3668 24.839C16.7168 23.7557 17.7835 23.1557 18.7335 22.189C18.9835 21.939 23.2502 18.0557 23.3335 17.7057C23.3451 17.6526 23.3435 17.5976 23.329 17.5453C23.3145 17.4931 23.2874 17.4451 23.2502 17.4057C23.1502 17.3223 23.0168 17.3557 22.9002 17.3723C22.7502 17.4057 20.4168 18.9557 15.8668 22.0223C15.2002 22.4723 14.6002 22.7057 14.0668 22.689C13.4668 22.6723 12.3335 22.3557 11.4835 22.0723C10.4335 21.739 9.61683 21.5557 9.6835 20.9723C9.71683 20.6723 10.1335 20.3723 10.9168 20.0557C15.7835 17.939 19.0168 16.539 20.6335 15.8723C25.2668 13.939 26.2168 13.6057 26.8502 13.6057C26.9835 13.6057 27.3002 13.639 27.5002 13.8057C27.6668 13.939 27.7168 14.1223 27.7335 14.2557C27.7168 14.3557 27.7502 14.6557 27.7335 14.889Z" fill="#F8F4F3"/>
</svg>
