<svg width="40" height="41" viewBox="0 0 40 41" fill="none" xmlns="http://www.w3.org/2000/svg">
<path d="M25.1218 3.55566H14.8968C5.5535 3.55566 3.3335 5.77733 3.3335 15.1007V25.3273C3.3335 34.6673 5.5385 36.889 14.8785 36.889H25.1052C34.4452 36.889 36.6668 34.684 36.6668 25.344V15.119C36.6668 5.77566 34.4618 3.55566 25.1218 3.55566ZM30.2435 27.339H27.8118C26.8918 27.339 26.6152 26.594 24.9652 24.944C23.5252 23.5557 22.9168 23.3823 22.5518 23.3823C22.0485 23.3823 21.9102 23.5207 21.9102 24.2157V26.4023C21.9102 26.994 21.7185 27.3407 20.1735 27.3407C18.6741 27.2399 17.22 26.7843 15.9312 26.0115C14.6423 25.2387 13.5554 24.1708 12.7602 22.8957C10.8721 20.5457 9.5584 17.7875 8.9235 14.8407C8.9235 14.4757 9.06183 14.1457 9.75683 14.1457H12.1885C12.8135 14.1457 13.0385 14.424 13.2818 15.0657C14.4618 18.539 16.4752 21.559 17.2918 21.559C17.6052 21.559 17.7418 21.4207 17.7418 20.639V17.0623C17.6385 15.4307 16.7718 15.2923 16.7718 14.7023C16.783 14.5467 16.8543 14.4015 16.9706 14.2976C17.087 14.1937 17.2393 14.1392 17.3952 14.1457H21.2152C21.7368 14.1457 21.9102 14.4057 21.9102 15.0307V19.8573C21.9102 20.379 22.1352 20.5523 22.2918 20.5523C22.6052 20.5523 22.8468 20.379 23.4202 19.8057C24.6516 18.3039 25.6577 16.6308 26.4068 14.839C26.4834 14.6238 26.6283 14.4395 26.8194 14.3143C27.0105 14.1891 27.2373 14.1299 27.4652 14.1457H29.8968C30.6252 14.1457 30.7802 14.5107 30.6252 15.0307C29.741 17.0114 28.6469 18.8916 27.3618 20.639C27.1002 21.039 26.9952 21.2473 27.3618 21.7157C27.6035 22.0807 28.4552 22.7923 29.0285 23.469C29.8617 24.3001 30.5535 25.2616 31.0768 26.3157C31.2852 26.9923 30.9368 27.339 30.2435 27.339Z" fill="#F8F4F3"/>
</svg>
