<svg width="40" height="41" viewBox="0 0 40 41" fill="none" xmlns="http://www.w3.org/2000/svg">
<g clip-path="url(#clip0_7097_1535)">
<path fill-rule="evenodd" clip-rule="evenodd" d="M20.0002 6.88965C21.4252 6.88965 22.8868 6.92632 24.3035 6.98632L25.9768 7.06631L27.5785 7.16132L29.0785 7.26298L30.4485 7.36965C31.9355 7.4828 33.3348 8.11704 34.4001 9.16065C35.4653 10.2043 36.1282 11.5903 36.2718 13.0746L36.3385 13.783L36.4635 15.2996C36.5802 16.8713 36.6668 18.5846 36.6668 20.223C36.6668 21.8613 36.5802 23.5746 36.4635 25.1463L36.3385 26.663L36.2718 27.3713C36.1281 28.8559 35.465 30.2422 34.3995 31.2858C33.3339 32.3295 31.9341 32.9635 30.4468 33.0763L29.0802 33.1813L27.5802 33.2846L25.9768 33.3796L24.3035 33.4596C22.8699 33.5217 21.4351 33.554 20.0002 33.5563C18.5652 33.554 17.1304 33.5217 15.6968 33.4596L14.0235 33.3796L12.4218 33.2846L10.9218 33.1813L9.55183 33.0763C8.06485 32.9632 6.66549 32.3289 5.60024 31.2853C4.53498 30.2417 3.87215 28.8557 3.7285 27.3713L3.66183 26.663L3.53683 25.1463C3.40988 23.5082 3.34206 21.866 3.3335 20.223C3.3335 18.5846 3.42016 16.8713 3.53683 15.2996L3.66183 13.783L3.7285 13.0746C3.87209 11.5906 4.53468 10.2047 5.5996 9.16116C6.66452 8.11758 8.06348 7.48318 9.55016 7.36965L10.9185 7.26298L12.4185 7.16132L14.0218 7.06631L15.6952 6.98632C17.1293 6.92419 18.5646 6.89196 20.0002 6.88965ZM16.6668 16.1813V24.2646C16.6668 25.0346 17.5002 25.5146 18.1668 25.1313L25.1668 21.0896C25.3191 21.002 25.4457 20.8757 25.5336 20.7235C25.6216 20.5714 25.6679 20.3987 25.6679 20.223C25.6679 20.0472 25.6216 19.8746 25.5336 19.7224C25.4457 19.5703 25.3191 19.444 25.1668 19.3563L18.1668 15.3163C18.0148 15.2285 17.8423 15.1823 17.6667 15.1823C17.4911 15.1824 17.3186 15.2286 17.1665 15.3165C17.0145 15.4043 16.8883 15.5306 16.8006 15.6828C16.7128 15.8349 16.6667 16.0074 16.6668 16.183V16.1813Z" fill="#F8F4F3"/>
</g>
<defs>
<clipPath id="clip0_7097_1535">
<rect width="40" height="40" fill="white" transform="translate(0 0.222656)"/>
</clipPath>
</defs>
</svg>
